<svg width="24" height="24" viewBox="0 0 24 24" fill="currentColor" xmlns="http://www.w3.org/2000/svg">
  <!-- Simplified golf bag -->
  <g>
    <!-- Main bag body -->
    <path d="M8 4C8 3.5 8.5 3 9 3H15C15.5 3 16 3.5 16 4V20C16 20.5 15.5 21 15 21H9C8.5 21 8 20.5 8 20V4Z" fill="currentColor"/>
    
    <!-- Top opening -->
    <ellipse cx="12" cy="3" rx="4" ry="1" fill="currentColor" opacity="0.8"/>
    
    <!-- Club heads -->
    <rect x="10" y="1" width="1" height="3" rx="0.5" fill="currentColor"/>
    <rect x="13" y="1" width="1" height="3" rx="0.5" fill="currentColor"/>
    <circle cx="10.5" cy="1" r="0.8" fill="currentColor"/>
    <circle cx="13.5" cy="1" r="0.8" fill="currentColor"/>
    
    <!-- Strap -->
    <path d="M7 7C6.5 7 6 7.5 6 8V10C6 10.5 6.5 11 7 11" stroke="currentColor" stroke-width="1" fill="none" opacity="0.6"/>
    <path d="M17 7C17.5 7 18 7.5 18 8V10C18 10.5 17.5 11 17 11" stroke="currentColor" stroke-width="1" fill="none" opacity="0.6"/>
    
    <!-- Pocket -->
    <rect x="10" y="15" width="4" height="3" rx="0.5" fill="#000" opacity="0.2"/>
    
    <!-- Detail lines -->
    <line x1="8" y1="9" x2="16" y2="9" stroke="#000" stroke-width="0.5" opacity="0.2"/>
    <line x1="8" y1="12" x2="16" y2="12" stroke="#000" stroke-width="0.5" opacity="0.2"/>
  </g>
</svg>