<?xml version="1.0" encoding="UTF-8"?>
<svg width="24" height="24" viewBox="0 0 24 24" xmlns="http://www.w3.org/2000/svg" fill="none">
  <g stroke="currentColor" stroke-linecap="round" stroke-linejoin="round">
    <!-- standing bag body (tapered) -->
    <path d="M7.5 7.5 v7.8c0 2.3 1.8 4.2 4 4.2s4-1.9 4-4.2V7.5
             c0-1.4-1.2-2.5-2.6-2.5h-2.8c-1.4 0-2.6 1.1-2.6 2.5z"
          stroke-width="1.9"/>
    <!-- base oval hint -->
    <path d="M7.8 17.8c.7.5 2.1.9 3.7.9s3-.3 3.7-.9" stroke-width="1.9"/>
    <!-- thin pocket detail -->
    <path d="M8.8 12.2h6.4" stroke-width="1"/>
    <!-- two simple clubs -->
    <path d="M10.8 7V3.6" stroke-width="1.3"/>
    <path d="M13.6 7V3.2" stroke-width="1.3"/>
    <!-- club heads -->
    <path d="M10.8 3.6c-.7-.2-1.3-.2-1.8.2" stroke-width="1.9"/>
    <path d="M13.6 3.2c.9-.3 1.7-.2 2.3.3" stroke-width="1.9"/>
  </g>
</svg>